<svg width="338" height="140" viewBox="0 0 338 140" fill="none" xmlns="http://www.w3.org/2000/svg">
<g clip-path="url(#clip0_4457_50148)">
<path d="M168.549 -15.0621C164.395 -17.0296 159.776 -17.2515 156.839 -16.8003C154.087 -16.3787 150.11 -15.3284 146.76 -12.7025C144.679 -11.0678 143.13 -9.03369 142.156 -6.65932C141.004 -3.84114 140.65 -0.519979 141.108 3.2154C141.174 3.77756 141.462 4.27315 141.912 4.6134C142.362 4.95365 142.923 5.10159 143.484 5.01283L150.693 3.9107C151.711 3.75537 152.471 2.86036 152.456 1.8322C152.434 -0.482996 153.194 -4.50685 158.573 -5.42406C162.676 -6.11936 164.823 -3.39733 165.554 -2.19166C166.749 -0.231504 166.904 2.28341 165.967 4.53943C164.528 8.00113 161.075 9.02929 159.142 9.32516C156.921 9.67281 155.386 11.7587 155.725 13.9703L156.906 21.7518C157.075 22.8909 158.138 23.6675 159.274 23.4974L166.299 22.4249C167.435 22.2548 168.21 21.1896 168.04 20.0505L167.789 18.4158C167.789 18.3788 167.804 18.3419 167.841 18.3197C169.346 17.5208 172.224 15.6938 174.585 12.4984C177.596 8.42275 178.703 3.58524 177.869 -1.88099C176.681 -9.6994 172.136 -13.3756 168.535 -15.0769L168.549 -15.0621Z" fill="#E1ECEF"/>
<path d="M163.441 24.8732L162.828 24.9694C159.892 25.4206 157.862 28.1796 158.313 31.1235C158.763 34.0674 161.515 36.1016 164.452 35.6503L165.064 35.5542C168.001 35.103 170.03 32.344 169.58 29.4001C169.13 26.4561 166.378 24.422 163.441 24.8732Z" fill="#E1ECEF"/>
<path d="M20.5217 108.304C17.1867 108.024 13.9882 109.052 12.1013 110.102C10.3328 111.092 7.88552 112.821 6.27387 115.464C5.27092 117.107 4.73677 118.889 4.68039 120.757C4.61296 122.971 5.21802 125.323 6.48843 127.746C6.67631 128.107 7.00257 128.375 7.39235 128.49C7.7875 128.61 8.20412 128.567 8.56378 128.359L13.1959 125.77C13.8487 125.402 14.1392 124.599 13.8687 123.906C13.2597 122.333 12.7531 119.403 16.1955 117.406C18.8107 115.886 20.9737 117.192 21.7804 117.823C23.0947 118.854 23.8423 120.528 23.7779 122.297C23.6833 125.024 21.5867 126.597 20.3479 127.295C18.9188 128.098 18.4064 129.91 19.1991 131.332L21.9844 136.328C22.3918 137.06 23.3133 137.322 24.0434 136.915L28.5574 134.397C29.2874 133.99 29.5484 133.068 29.141 132.337L28.5574 131.286C28.5574 131.286 28.5506 131.229 28.5658 131.213C29.3853 130.28 30.8854 128.305 31.6784 125.528C32.6898 121.981 32.2117 118.407 30.2521 114.894C27.4504 109.872 23.4112 108.529 20.5211 108.283L20.5217 108.304Z" fill="#E1ECEF"/>
<path d="M27.2267 136.807L26.836 137.027C24.9441 138.083 24.2706 140.475 25.3275 142.37C26.3844 144.266 28.775 144.943 30.667 143.888L31.0576 143.668C32.9496 142.612 33.623 140.22 32.5661 138.324C31.5093 136.429 29.1187 135.752 27.2267 136.807Z" fill="#E1ECEF"/>
<path d="M334.107 93.3848C331.081 89.7826 326.89 87.6005 323.968 86.7647C321.238 85.9806 317.091 85.2557 312.863 86.2691C310.236 86.8978 307.934 88.1257 306.016 89.9157C303.743 92.0386 302.009 94.9751 300.843 98.6439C300.666 99.1913 300.725 99.7756 300.998 100.286C301.271 100.796 301.728 101.166 302.289 101.329L309.454 103.385C310.465 103.674 311.55 103.171 311.978 102.209C312.937 100.049 315.357 96.6394 320.751 98.0892C324.861 99.1987 325.695 102.646 325.864 104.073C326.137 106.403 325.215 108.807 323.385 110.501C320.574 113.105 316.929 112.579 315.01 112.032C312.797 111.403 310.487 112.683 309.86 114.887L307.646 122.617C307.322 123.749 307.978 124.925 309.1 125.25L316.08 127.255C317.209 127.58 318.382 126.922 318.707 125.798L319.172 124.17C319.179 124.133 319.216 124.104 319.26 124.104C321.002 124 324.455 123.542 327.997 121.581C332.527 119.081 335.612 115.057 337.169 109.628C339.39 101.854 336.733 96.4988 334.107 93.3774V93.3848Z" fill="#E1ECEF"/>
<path d="M312.378 128.305L311.765 128.128C308.843 127.292 305.788 128.986 304.947 131.915C304.113 134.844 305.803 137.906 308.725 138.749L309.338 138.927C312.26 139.763 315.314 138.069 316.148 135.14C316.982 132.211 315.292 129.148 312.37 128.305H312.378Z" fill="#E1ECEF"/>
<path d="M37.0482 61.2311C49.2885 56.4791 55.3684 42.68 50.6281 30.4098C45.8878 18.1395 32.1222 12.0447 19.8819 16.7967C7.64151 21.5486 1.56156 35.3477 6.3019 47.618C11.0422 59.8882 24.8078 65.983 37.0482 61.2311Z" fill="white"/>
<path d="M52.2294 39.0085C52.2294 39.0085 52.2147 38.8754 52.1926 38.6239C52.1778 38.3576 52.1483 37.9804 52.1188 37.4922C52.104 37.2407 52.0892 36.967 52.0671 36.6563C52.0376 36.3531 51.9712 36.0202 51.9195 35.6578C51.8605 35.2953 51.8015 34.9107 51.7351 34.4965C51.6834 34.0822 51.5285 33.6532 51.4252 33.1946C51.0046 31.3528 50.1486 29.1782 48.7909 26.8778C47.4259 24.5848 45.4557 22.1808 42.7698 20.1467C42.4304 19.8952 42.091 19.6437 41.7442 19.3848C41.3826 19.1481 41.0063 18.9336 40.63 18.7043C40.2463 18.4898 39.8847 18.2235 39.4789 18.0386C39.0731 17.8463 38.6672 17.6466 38.254 17.4468C38.0474 17.3507 37.8408 17.2471 37.6268 17.151C37.4128 17.0696 37.1915 16.9882 36.9701 16.9143C36.5274 16.7515 36.0847 16.5888 35.6419 16.4261C35.1918 16.2781 34.7196 16.182 34.2473 16.0488C33.7751 15.9379 33.3102 15.7752 32.8159 15.7234C31.8419 15.5829 30.8531 15.3831 29.8275 15.3757C29.3183 15.3609 28.8018 15.3092 28.2853 15.3166C27.7688 15.3462 27.2449 15.3683 26.721 15.3979C26.4554 15.4127 26.1971 15.4127 25.9315 15.4497L25.1419 15.5681C24.618 15.6568 24.0794 15.716 23.5555 15.8269C22.5151 16.108 21.4304 16.3225 20.4047 16.7515C19.3422 17.0918 18.3461 17.617 17.3204 18.1126C16.8187 18.3862 16.3464 18.6969 15.852 18.9928C15.6085 19.1481 15.3503 19.2812 15.1215 19.4588L14.4279 19.9839C13.4687 20.6423 12.6275 21.4707 11.7494 22.2696C11.351 22.706 10.9525 23.1498 10.5467 23.5936L10.2442 23.9264L9.97115 24.2889L9.4325 25.0138L8.88647 25.7387L8.41423 26.5153L7.94198 27.2994L7.70586 27.6914L7.50664 28.1056C7.241 28.6604 6.97536 29.2151 6.70235 29.7773C6.48836 30.3617 6.27438 30.946 6.06039 31.5303C5.293 33.9047 4.87241 36.427 4.84289 39.0011C4.87979 41.5678 5.293 44.0975 6.06039 46.4719C6.27438 47.0562 6.48836 47.6406 6.70235 48.2249C6.96798 48.7871 7.241 49.3418 7.50664 49.8966L7.70586 50.3108L7.94198 50.7028L8.41423 51.4869L8.88647 52.2636L9.4325 52.9958L9.97115 53.7207L10.2442 54.0832L10.5467 54.416C10.9525 54.8598 11.351 55.3036 11.7494 55.7401C12.6275 56.5389 13.4687 57.36 14.4279 58.0257L15.1215 58.5508C15.3503 58.7284 15.6085 58.8615 15.852 59.0168C16.3464 59.3127 16.826 59.6234 17.3204 59.8971C18.3461 60.3926 19.3422 60.9178 20.4047 61.2581C21.4304 61.6871 22.5151 61.9016 23.5555 62.1827C24.0868 62.2936 24.618 62.3528 25.1419 62.4416L25.9315 62.5599C26.1971 62.5969 26.4554 62.5895 26.721 62.6117C27.2449 62.6413 27.7688 62.6635 28.2853 62.693C28.8018 62.7004 29.3183 62.6487 29.8275 62.6339C30.8531 62.6339 31.8419 62.4268 32.8159 62.2862C33.3102 62.2345 33.7751 62.0717 34.2473 61.9608C34.7122 61.835 35.1918 61.7389 35.6419 61.5835C36.092 61.4208 36.5348 61.2581 36.9701 61.0953C37.1915 61.014 37.4055 60.9326 37.6268 60.8586C37.8334 60.7625 38.0474 60.6589 38.254 60.5628C38.6672 60.3631 39.0731 60.1707 39.4789 59.971C39.8921 59.7861 40.2537 59.5198 40.63 59.3053C41.0063 59.076 41.3826 58.8615 41.7442 58.6248C42.091 58.3659 42.4304 58.1144 42.7698 57.8629C45.4557 55.8288 47.4259 53.4323 48.7909 51.1319C50.1486 48.8241 51.0046 46.6494 51.4252 44.815C51.5285 44.3564 51.6834 43.9348 51.7351 43.5132C51.8015 43.0989 51.8605 42.7143 51.9195 42.3519C51.9712 41.9894 52.0376 41.664 52.0671 41.3533C52.0819 41.05 52.104 40.7689 52.1188 40.5175C52.1483 40.0293 52.1704 39.652 52.1926 39.3857C52.2073 39.1343 52.2294 39.0011 52.2294 39.0011C52.2294 39.0011 52.2294 39.1343 52.2294 39.3857C52.2221 39.652 52.2073 40.0293 52.1852 40.5175C52.1778 40.7689 52.163 41.05 52.1483 41.3533C52.1188 41.6566 52.0597 41.9894 52.0155 42.3519C51.9638 42.7143 51.9048 43.0989 51.8457 43.5206C51.8015 43.9422 51.6539 44.3638 51.5506 44.8298C51.1448 46.6864 50.3036 48.8758 48.9533 51.2058C47.5956 53.5284 45.6181 55.9546 42.9174 58.0183C42.578 58.2698 42.2386 58.5287 41.8918 58.7949C41.5302 59.0316 41.1465 59.2535 40.7702 59.4902C40.3865 59.7121 40.0176 59.9784 39.6043 60.1707C39.1985 60.3705 38.7853 60.5702 38.3647 60.7699C38.1581 60.8734 37.9441 60.9696 37.7375 61.0732C37.5162 61.1545 37.2948 61.2359 37.0734 61.3172C36.6307 61.48 36.1806 61.6427 35.7305 61.8128C35.273 61.9682 34.7934 62.0643 34.3211 62.1975C33.8415 62.3084 33.3767 62.4785 32.8749 62.5303C31.8861 62.6709 30.89 62.878 29.857 62.8854C29.3405 62.9076 28.8239 62.9593 28.3001 62.9519C27.7762 62.9297 27.2523 62.9002 26.721 62.8706C26.4554 62.8558 26.1897 62.8558 25.9241 62.8188L25.1272 62.7005C24.5959 62.6117 24.0572 62.5525 23.5186 62.4416C22.4634 62.1531 21.3714 61.946 20.331 61.5096C19.261 61.1693 18.2501 60.6367 17.2097 60.1412C16.708 59.8675 16.221 59.5494 15.7192 59.2535C15.4757 59.0982 15.2101 58.9651 14.9813 58.7875L14.273 58.2624C13.299 57.5967 12.4504 56.7608 11.5576 55.9546C11.1518 55.5108 10.7459 55.0596 10.3401 54.6157L10.0376 54.2755L9.76454 53.9131L9.21851 53.1808L8.6651 52.4411L8.18548 51.6496L7.70586 50.8582L7.46236 50.4587L7.25576 50.0371C6.98274 49.475 6.7171 48.9128 6.44409 48.3433C6.23011 47.7515 6.00874 47.1598 5.79476 46.568C5.01261 44.1641 4.59202 41.6048 4.5625 39.0011C4.59939 36.3974 5.01998 33.8455 5.79476 31.4416C6.00874 30.8498 6.23011 30.2581 6.44409 29.6664C6.7171 29.1042 6.99012 28.5346 7.25576 27.9725L7.46236 27.5509L7.70586 27.1514L8.18548 26.36L8.6651 25.5685L9.21851 24.8288L9.76454 24.0966L10.0376 23.7341L10.3401 23.3939C10.7459 22.9427 11.1518 22.4989 11.5576 22.055C12.4504 21.2488 13.299 20.413 14.273 19.7472L14.974 19.2221C15.2101 19.0446 15.4683 18.9114 15.7118 18.7561C16.2136 18.4602 16.6932 18.1421 17.2024 17.8685C18.2428 17.3729 19.2463 16.8403 20.3236 16.5001C21.364 16.0636 22.4561 15.8565 23.5112 15.5681C24.0499 15.4571 24.5885 15.3979 25.1198 15.3092L25.9167 15.1908C26.1823 15.1538 26.448 15.1612 26.7136 15.139C27.2449 15.1095 27.7688 15.0873 28.2927 15.0577C28.8166 15.0577 29.3331 15.1021 29.8496 15.1242C30.8826 15.1316 31.8788 15.3388 32.8675 15.4793C33.3619 15.5311 33.8341 15.7012 34.3138 15.8122C34.786 15.9453 35.2656 16.0415 35.7231 16.1968C36.1732 16.3669 36.6233 16.5296 37.066 16.6924C37.2874 16.7737 37.5088 16.8551 37.7301 16.9365C37.9441 17.04 38.1507 17.1362 38.3573 17.2397C38.7705 17.4394 39.1838 17.6392 39.597 17.8389C40.0102 18.0312 40.3717 18.2975 40.7628 18.5194C41.1391 18.7561 41.5228 18.9706 41.8844 19.2147C42.2312 19.4736 42.578 19.7325 42.91 19.9913C45.6107 22.055 47.5808 24.4812 48.9459 26.8038C50.2962 29.1338 51.1448 31.3306 51.5432 33.1798C51.6465 33.6458 51.7941 34.0674 51.8384 34.4891C51.8974 34.9033 51.9564 35.2953 52.0081 35.6578C52.0597 36.0202 52.1188 36.3531 52.1483 36.6563C52.163 36.9596 52.1704 37.2407 52.1852 37.4922C52.1999 37.9804 52.2147 38.3576 52.2294 38.6239C52.2368 38.8828 52.2294 39.0085 52.2294 39.0085Z" fill="#263238"/>
<path d="M20.0081 34.9255H24.5239C24.5239 34.9255 24.5239 31.1235 28.4642 31.057C30.5081 31.02 31.5707 32.3662 31.9986 33.3943C32.5004 34.5926 32.3455 35.9536 31.674 37.0631C30.9066 38.328 29.2316 39.4819 26.1842 38.9419V45.5843H30.6483V43.1729C30.6483 43.1729 36.9129 41.553 36.9129 34.637C36.9129 27.721 30.9951 26.4783 28.4568 26.4783C26.5162 26.4783 19.9196 26.9517 20.0007 34.9329L20.0081 34.9255Z" fill="#14B8AD"/>
<path d="M30.7181 47.3077H26.1875V51.5461H30.7181V47.3077Z" fill="#14B8AD"/>
<path d="M53.3076 61.295C53.3076 63.307 51.6843 64.9343 49.6772 64.9343C47.6702 64.9343 46.0469 63.307 46.0469 61.295C46.0469 59.2831 47.6702 57.6558 49.6772 57.6558C51.6843 57.6558 53.3076 59.2831 53.3076 61.295Z" fill="white"/>
<path d="M53.3067 61.2951C53.3067 61.2951 53.2846 60.9696 53.137 60.4223C52.9894 59.8823 52.6205 59.0982 51.8088 58.4917C51.0267 57.8852 49.7354 57.5449 48.4884 58.0109C47.876 58.2328 47.293 58.6544 46.8724 59.2314C46.4445 59.8009 46.2083 60.5406 46.201 61.2951C46.201 62.0495 46.4445 62.7818 46.8724 63.3588C47.2856 63.9357 47.876 64.3574 48.4884 64.5793C49.7354 65.0453 51.0267 64.705 51.8088 64.0985C52.6205 63.4919 52.9894 62.7079 53.137 62.1679C53.2846 61.6205 53.2772 61.2951 53.3067 61.2951C53.3141 61.2951 53.3215 61.3764 53.3215 61.5318C53.3215 61.6871 53.3067 61.9164 53.2477 62.1975C53.1296 62.7596 52.7755 63.6029 51.9343 64.2686C51.1226 64.9343 49.7428 65.3263 48.3925 64.8381C47.7284 64.6014 47.0864 64.1576 46.6363 63.5289C46.1715 62.9076 45.9058 62.1161 45.8984 61.2951C45.8984 60.474 46.1715 59.6752 46.6363 59.0612C47.0938 58.4325 47.7284 57.9887 48.3925 57.752C49.7428 57.2638 51.1226 57.6559 51.9343 58.3216C52.7755 58.9873 53.1296 59.8305 53.2477 60.3927C53.3067 60.6811 53.3289 60.9104 53.3215 61.0584C53.3215 61.2137 53.3141 61.2951 53.3067 61.2951Z" fill="#263238"/>
<path d="M310.274 41.9216C320.028 32.1436 320.028 16.2903 310.274 6.51226C300.519 -3.26575 284.705 -3.26574 274.951 6.51227C265.196 16.2903 265.196 32.1436 274.951 41.9216C284.705 51.6996 300.519 51.6996 310.274 41.9216Z" fill="white"/>
<path d="M317.588 24.215C317.588 24.215 317.573 24.0745 317.551 23.8082C317.536 23.5271 317.506 23.1351 317.477 22.6173C317.462 22.3584 317.447 22.0625 317.425 21.7445C317.388 21.4264 317.322 21.0788 317.27 20.7015C317.211 20.3243 317.145 19.9175 317.078 19.4811C317.027 19.0446 316.864 18.6008 316.754 18.1126C316.311 16.1821 315.411 13.8965 313.987 11.4703C312.555 9.05897 310.482 6.53666 307.663 4.39898C307.309 4.1327 306.947 3.86641 306.586 3.59273C306.21 3.34124 305.811 3.11934 305.42 2.87524C305.022 2.64594 304.638 2.36486 304.21 2.17255C303.782 1.96544 303.354 1.75833 302.919 1.55122C302.705 1.44766 302.483 1.3441 302.262 1.24055C302.033 1.15918 301.804 1.07042 301.576 0.989058C301.111 0.818932 300.646 0.648805 300.181 0.478679C299.709 0.323346 299.207 0.219792 298.72 0.0866495C298.226 -0.0243025 297.731 -0.201826 297.215 -0.253604C296.189 -0.40154 295.149 -0.60865 294.071 -0.616047C293.533 -0.63084 292.994 -0.690015 292.455 -0.675221C291.909 -0.645634 291.363 -0.616046 290.81 -0.586459C290.537 -0.564269 290.257 -0.571666 289.984 -0.534682L289.157 -0.408936C288.604 -0.320174 288.043 -0.253604 287.49 -0.135255C286.39 0.160617 285.261 0.389919 284.176 0.841123C283.062 1.19617 282.014 1.75093 280.937 2.2687C280.413 2.55718 279.912 2.88264 279.395 3.1933C279.144 3.35603 278.871 3.49657 278.628 3.68149L277.897 4.22886C276.886 4.92416 276.008 5.78958 275.078 6.62542C274.658 7.08402 274.237 7.55002 273.817 8.01602L273.499 8.36367L273.212 8.7409L272.643 9.50277L272.075 10.272L271.574 11.0931L271.072 11.9141L270.821 12.3284L270.607 12.7648C270.326 13.3491 270.046 13.9335 269.766 14.5178C269.544 15.1317 269.316 15.7457 269.094 16.3596C268.283 18.8597 267.847 21.5078 267.81 24.2076C267.847 26.9074 268.283 29.5629 269.087 32.0556C269.316 32.6695 269.537 33.2835 269.758 33.8974C270.039 34.4818 270.319 35.0735 270.6 35.6505L270.813 36.0869L271.064 36.5011L271.566 37.3221L272.068 38.1432L272.636 38.9124L273.204 39.6743L273.492 40.0515L273.809 40.3992C274.23 40.8652 274.65 41.3312 275.071 41.7898C275.993 42.6256 276.879 43.4985 277.89 44.1864L278.62 44.7337C278.864 44.9186 279.137 45.0592 279.388 45.2219C279.904 45.5326 280.406 45.8654 280.937 46.1465C282.014 46.6643 283.062 47.219 284.176 47.5741C285.254 48.0253 286.39 48.2472 287.49 48.5505C288.043 48.6688 288.611 48.728 289.157 48.8241L289.984 48.9499C290.257 48.9869 290.537 48.9869 290.81 49.0017C291.363 49.0313 291.909 49.0608 292.455 49.0904C293.002 49.0978 293.54 49.046 294.071 49.0313C295.149 49.0313 296.182 48.8094 297.215 48.6688C297.731 48.617 298.218 48.4395 298.72 48.3286C299.214 48.1954 299.709 48.0919 300.181 47.9365C300.653 47.7664 301.118 47.5963 301.583 47.4262C301.812 47.3448 302.041 47.256 302.269 47.1747C302.491 47.0711 302.705 46.9675 302.926 46.864C303.361 46.6569 303.789 46.4498 304.217 46.2427C304.645 46.0503 305.029 45.7693 305.427 45.54C305.818 45.2959 306.217 45.0666 306.593 44.8225C306.955 44.5488 307.316 44.2825 307.671 44.0162C310.489 41.8786 312.563 39.3562 313.994 36.9449C315.418 34.5261 316.318 32.2405 316.761 30.3026C316.872 29.8218 317.034 29.378 317.086 28.9342C317.152 28.4977 317.219 28.0909 317.278 27.7137C317.337 27.3365 317.403 26.9888 317.433 26.6707C317.455 26.3527 317.47 26.0568 317.484 25.7979C317.514 25.2801 317.543 24.8881 317.558 24.607C317.58 24.3407 317.595 24.2002 317.595 24.2002C317.595 24.2002 317.595 24.3407 317.595 24.607C317.588 24.8881 317.573 25.2801 317.551 25.7979C317.543 26.0642 317.529 26.3527 317.514 26.6781C317.484 27.0036 317.425 27.3512 317.374 27.7285C317.315 28.1057 317.256 28.5199 317.197 28.9564C317.152 29.4002 316.99 29.844 316.887 30.3322C316.466 32.2775 315.573 34.5853 314.156 37.0337C312.725 39.4746 310.652 42.0191 307.818 44.1938C307.464 44.46 307.102 44.7337 306.733 45.0074C306.357 45.2589 305.951 45.4882 305.56 45.7397C305.154 45.969 304.771 46.2575 304.335 46.4498C303.907 46.6569 303.472 46.8714 303.037 47.0785C302.815 47.1821 302.594 47.293 302.373 47.3966C302.144 47.4779 301.908 47.5667 301.679 47.6555C301.214 47.8256 300.742 48.0031 300.27 48.1732C299.79 48.336 299.288 48.4395 298.794 48.5727C298.292 48.691 297.798 48.8685 297.274 48.9203C296.233 49.0682 295.186 49.2901 294.101 49.2975C293.562 49.3197 293.016 49.3715 292.463 49.3641C291.909 49.3345 291.356 49.3123 290.803 49.2827C290.522 49.2606 290.242 49.268 289.961 49.231L289.12 49.1052C288.559 49.0165 287.991 48.9499 287.431 48.8315C286.324 48.5283 285.173 48.3064 284.081 47.8552C282.952 47.4927 281.889 46.938 280.804 46.4128C280.273 46.1243 279.764 45.7915 279.24 45.4808C278.982 45.3181 278.709 45.1775 278.465 44.9926L277.727 44.4378C276.702 43.7351 275.809 42.8549 274.872 42.0117C274.444 41.5457 274.023 41.0723 273.595 40.6063L273.271 40.2513L272.983 39.8666L272.407 39.0974L271.832 38.3207L271.323 37.4923L270.813 36.6564L270.563 36.2348L270.349 35.791C270.068 35.1992 269.78 34.6075 269.493 34.0158C269.264 33.3944 269.035 32.7731 268.806 32.1518C267.987 29.6221 267.545 26.937 267.508 24.2002C267.545 21.4708 267.987 18.7784 268.806 16.2487C269.035 15.6273 269.264 15.006 269.493 14.3847C269.78 13.7929 270.061 13.2012 270.349 12.6094L270.563 12.1656L270.813 11.744L271.323 10.9082L271.832 10.0797L272.407 9.30306L272.983 8.53379L273.271 8.14916L273.595 7.79411C274.023 7.32072 274.451 6.85472 274.872 6.38872C275.809 5.54549 276.702 4.66527 277.727 3.96257L278.465 3.40781C278.709 3.22289 278.982 3.08235 279.24 2.91962C279.764 2.60896 280.273 2.2761 280.804 1.98763C281.896 1.46245 282.959 0.907693 284.081 0.552647C285.173 0.101442 286.324 -0.127858 287.431 -0.42373C287.991 -0.542079 288.559 -0.601252 289.12 -0.697411L289.961 -0.823156C290.242 -0.86014 290.522 -0.860141 290.803 -0.874935C291.363 -0.904522 291.917 -0.926712 292.463 -0.956299C293.016 -0.956299 293.555 -0.911918 294.101 -0.889728C295.186 -0.882331 296.233 -0.667823 297.274 -0.512491C297.798 -0.453316 298.292 -0.275794 298.794 -0.164842C299.288 -0.0316994 299.79 0.0792519 300.27 0.234585C300.742 0.412108 301.214 0.582235 301.679 0.752361C301.915 0.841123 302.144 0.922488 302.373 1.01125C302.594 1.1148 302.815 1.22576 303.037 1.32931C303.472 1.54382 303.907 1.75093 304.335 1.95804C304.771 2.15775 305.154 2.43883 305.56 2.66813C305.959 2.91223 306.357 3.14892 306.733 3.40041C307.095 3.6741 307.457 3.94778 307.818 4.21406C310.652 6.38132 312.732 8.93322 314.156 11.3742C315.573 13.8225 316.466 16.1303 316.887 18.0757C316.997 18.5638 317.152 19.0077 317.197 19.4515C317.263 19.8879 317.322 20.2947 317.374 20.6793C317.425 21.0566 317.492 21.4116 317.514 21.7297C317.529 22.0551 317.536 22.3436 317.551 22.6099C317.573 23.1277 317.588 23.5197 317.595 23.8008C317.602 24.0671 317.595 24.2076 317.595 24.2076L317.588 24.215Z" fill="#263238"/>
<path d="M283.727 19.9248H288.471C288.471 19.9248 288.471 15.9305 292.611 15.8566C294.758 15.8196 295.872 17.2324 296.33 18.3123C296.853 19.5698 296.698 20.9973 295.99 22.166C295.186 23.4975 293.422 24.7031 290.227 24.141V31.1236H294.92V28.5865C294.92 28.5865 301.502 26.8778 301.502 19.6141C301.502 12.3505 295.282 11.0413 292.618 11.0413C290.581 11.0413 283.645 11.5368 283.734 19.9248H283.727Z" fill="#14B8AD"/>
<path d="M294.97 32.9358H290.211V37.3961H294.97V32.9358Z" fill="#14B8AD"/>
<path d="M269.38 45.784C269.38 47.8921 267.675 49.6082 265.565 49.6082C263.455 49.6082 261.75 47.8995 261.75 45.784C261.75 43.6686 263.455 41.9599 265.565 41.9599C267.675 41.9599 269.38 43.6686 269.38 45.784Z" fill="white"/>
<path d="M269.378 45.784C269.378 45.784 269.356 45.4438 269.201 44.8668C269.046 44.2973 268.655 43.4688 267.807 42.8327C266.98 42.1966 265.63 41.8416 264.317 42.3297C263.675 42.5664 263.055 43.0028 262.619 43.6168C262.169 44.2159 261.918 44.9852 261.911 45.784C261.918 46.5829 262.169 47.3522 262.619 47.9513C263.055 48.5578 263.675 49.0017 264.317 49.2384C265.63 49.7265 266.98 49.3715 267.807 48.7354C268.655 48.0992 269.046 47.2708 269.201 46.7013C269.356 46.1243 269.349 45.784 269.378 45.784C269.386 45.784 269.393 45.8654 269.4 46.0281C269.4 46.1909 269.386 46.4276 269.319 46.7308C269.194 47.3226 268.825 48.2102 267.94 48.9129C267.084 49.6156 265.637 50.0298 264.213 49.512C263.512 49.2679 262.841 48.7945 262.369 48.1362C261.882 47.4853 261.601 46.6495 261.594 45.784C261.594 44.9186 261.882 44.0828 262.369 43.4319C262.848 42.7735 263.512 42.3002 264.213 42.0561C265.637 41.5457 267.084 41.9599 267.932 42.6552C268.818 43.3505 269.187 44.2381 269.312 44.8373C269.378 45.1405 269.393 45.3772 269.393 45.54C269.393 45.7027 269.386 45.784 269.371 45.784H269.378Z" fill="#263238"/>
<path d="M104.292 62.8262C104.861 57.0567 105.724 51.2502 107.834 45.8505C109.937 40.4509 113.391 35.4358 118.268 32.3144L119.522 33.4831C120.386 31.0052 122.688 29.0894 125.278 28.69C127.868 28.2905 130.635 29.4296 132.199 31.5377C134.996 30.7833 138.198 31.9298 139.888 34.2819C141.577 36.6341 141.637 40.044 140.035 42.4628C142.655 42.7957 144.964 44.8594 145.592 47.4261C146.219 49.9927 145.127 52.8997 142.965 54.4086C145.85 56.9087 147.001 61.2359 145.732 64.8381C144.47 68.4478 140.876 71.1032 137.062 71.2437C137.91 74.5649 136.184 78.3669 133.129 79.898C130.074 81.4365 126.001 80.5489 123.854 77.8861C124.119 81.3404 121.367 84.6097 118.01 85.4308C114.652 86.2518 110.992 84.8908 108.55 82.4499C106.1 80.0089 104.757 76.6212 104.233 73.1965C103.71 69.7718 103.953 66.2805 104.292 62.8336V62.8262Z" fill="#263238"/>
<path d="M119.783 37.2629C123.132 38.3502 123.819 41.0722 124.512 43.3356C126.01 48.2101 124.328 55.4294 121.605 59.7417C118.882 64.0541 115.894 66.2435 110.862 66.9758C110.699 59.2314 110.537 51.4943 110.367 43.7499L119.783 37.2629Z" fill="#14B8AD"/>
<path d="M121.674 50.5919C123.962 47.611 123.637 42.9362 120.959 40.3029C122.427 38.4537 121.896 35.606 120.405 33.7789C118.915 31.9519 116.701 30.9016 114.561 29.9104C113.388 24.5108 107.337 20.7088 101.973 22.0032C99.1764 17.8832 93.2291 17.2397 88.4624 18.6303C87.2965 18.9706 86.1307 19.407 84.9206 19.407C84.0277 19.407 83.1644 19.1629 82.279 19.0371C77.4311 18.3862 72.6127 21.8035 70.7238 26.3304C70.4212 27.0553 70.1704 27.8171 69.6907 28.4385C69.0635 29.2521 68.1043 29.7329 67.2926 30.3616C65.5365 31.7226 64.4149 33.8825 64.3264 36.1015C64.2452 37.9877 64.8503 39.9923 64.0534 41.7083C63.6549 42.5663 62.9392 43.2616 62.6292 44.1567C61.729 46.7529 64.5994 49.401 64.0681 52.0934C63.9574 52.6408 63.7139 53.1512 63.559 53.6911C63.2491 54.7933 63.3524 56.0063 63.8467 57.0419C64.2304 57.8407 64.8503 58.5656 64.9019 59.4532C64.9388 60.1263 64.6437 60.7625 64.5108 61.4208C64.1862 63.0259 67.6468 69.2318 69.0267 70.1046L110.444 70.4745C113.58 69.8309 116.133 66.9832 116.435 63.7952C116.487 63.2626 116.494 62.6856 116.819 62.2714C117.099 61.9164 117.55 61.7462 117.948 61.5317C120.612 60.0968 120.936 56.4279 120.656 53.4027C120.619 52.981 120.575 52.5446 120.678 52.1378C120.833 51.5387 121.283 51.0727 121.652 50.5845L121.674 50.5919Z" fill="#263238"/>
<path d="M109.806 50.6511C109.931 43.306 105.334 34.8589 98.0515 31.2641C93.4619 29.0006 89.8832 28.9858 87.4703 28.7048C82.0617 28.076 77.7008 30.7611 77.7008 30.7611C75.4208 31.301 67.0532 38.9789 66.6179 47.3077C66.1383 56.5685 65.9095 67.8856 67.0754 74.7794C69.4218 88.6336 80.0547 90.2905 80.0547 90.2905C80.0547 90.2683 79.0659 113.324 79.0659 113.324L99.4978 130.107L105.74 102.547L109.813 50.6511H109.806Z" fill="#FFBF9D"/>
<path d="M80.0612 90.2905C80.0612 90.2905 89.447 90.7935 98.6115 85.1349C98.6115 85.1349 93.7784 94.9727 79.9062 93.8188L80.0612 90.2905Z" fill="#FF9A6C"/>
<path d="M107.721 63.8322C107.714 62.7966 108.88 60.3483 109.898 60.1781C112.613 59.7269 117.513 59.8897 117.638 66.8131C117.801 76.2736 108.533 74.1655 108.267 74.2173C106.762 74.5279 107.751 67.4048 107.721 63.8322Z" fill="#FFBF9D"/>
<path d="M110.804 70.7112C110.848 70.6816 110.974 70.8221 111.247 70.9479C111.52 71.0662 111.985 71.1476 112.479 70.9479C113.468 70.5633 114.28 68.9656 114.302 67.2569C114.309 66.3915 114.117 65.5778 113.8 64.9047C113.497 64.2168 113.047 63.7434 112.538 63.662C112.036 63.5511 111.69 63.8618 111.579 64.128C111.453 64.3943 111.52 64.5866 111.468 64.6014C111.439 64.6236 111.262 64.4461 111.335 64.0541C111.372 63.8618 111.476 63.6399 111.697 63.4549C111.918 63.27 112.25 63.1665 112.605 63.196C113.335 63.233 113.999 63.8913 114.346 64.631C114.737 65.3707 114.973 66.2879 114.958 67.2569C114.929 69.1653 113.992 70.9627 112.627 71.3843C111.963 71.5692 111.409 71.3843 111.121 71.1624C110.826 70.9331 110.775 70.726 110.804 70.7038V70.7112Z" fill="#FF9A6C"/>
<path d="M64.5907 45.9097C64.8932 42.4702 66.2583 39.2156 67.9112 36.1903C69.0549 34.097 70.3757 32.0555 72.1761 30.4874C73.6814 29.1855 75.4744 28.2609 77.2748 27.4029C82.0046 25.1543 87.2805 23.2459 92.3866 24.3998C95.1241 25.0211 97.596 26.4783 99.9941 27.9429C101.831 29.0672 103.684 30.2137 105.226 31.7226C106.576 33.0467 107.668 34.6148 108.62 36.2495C110.907 40.1402 112.516 44.4895 112.826 48.9942C113.136 53.4988 116.537 57.4783 113.903 61.1397C113.697 61.4208 109.011 62.3972 108.686 62.5229C107.926 62.8262 107.085 61.9977 107.093 61.1767C107.093 60.3556 107.661 59.6455 108.273 59.0908C107.107 59.0538 106.303 57.7446 106.377 56.5759C106.451 55.4072 107.144 54.379 107.838 53.4322C107.926 53.3065 108.022 53.1807 108.044 53.0254C108.096 52.626 107.646 52.3819 107.299 52.1748C105.617 51.1762 105.432 48.4024 106.96 47.1893C104.709 46.6642 103.248 43.9495 104.052 41.7823C104.178 41.442 104.355 41.05 104.185 40.7245C104.03 40.4065 103.639 40.3103 103.3 40.2142C100.806 39.4745 99.1308 36.6489 99.6768 34.1044C98.3634 34.171 97.0352 34.2375 95.7587 33.9269C94.4822 33.6162 93.2499 32.8691 92.667 31.693C91.8332 33.202 90.1877 34.2301 88.4685 34.3263C86.7492 34.4225 85.0078 33.5718 84.0191 32.159C81.8202 32.3736 79.5696 32.0185 77.5405 31.1531C77.0387 33.2094 75.4228 34.9476 73.4231 35.5986C73.032 35.7243 72.5893 35.85 72.3975 36.2125C72.2794 36.4418 72.2942 36.7229 72.3089 36.9818C72.3753 38.3058 71.4825 38.8679 70.752 39.9701C70.0289 41.0722 68.7597 42.7217 67.4906 42.3518C67.6308 44.6005 66.428 46.2425 64.5391 47.4556L64.6055 45.9023L64.5907 45.9097Z" fill="#263238"/>
<path d="M62.6398 44.1715C62.6398 44.1715 62.7283 43.7794 63.1415 43.1507C63.3407 42.8326 63.6211 42.4628 63.8794 41.9894C64.1376 41.516 64.3369 40.9169 64.3959 40.2142C64.4623 39.5189 64.3959 38.7274 64.3369 37.8768C64.2705 37.0188 64.1967 36.072 64.3885 35.066C64.5656 34.0674 64.9641 33.0319 65.606 32.0703C65.9233 31.5895 66.307 31.1383 66.7571 30.7241C67.1998 30.3025 67.7164 29.9548 68.2403 29.5998C68.7568 29.2447 69.2807 28.8601 69.6644 28.3497C70.0481 27.8319 70.2916 27.2032 70.5424 26.5597C71.0516 25.2653 71.8042 24.0004 72.8003 22.8835C73.7965 21.7666 75.0066 20.7532 76.4307 20.0283C77.1317 19.6437 77.9065 19.3848 78.696 19.1555C79.5003 18.9706 80.3267 18.83 81.1753 18.8522C81.5959 18.8522 82.0238 18.904 82.4444 18.941C82.865 19.0002 83.2856 19.0889 83.6988 19.1629C84.5326 19.3182 85.3812 19.3404 86.2224 19.1407C87.0635 18.9632 87.89 18.6525 88.7607 18.4306C89.624 18.1865 90.5242 18.0386 91.4318 17.935C92.3394 17.8315 93.2691 17.8315 94.1988 17.8833C95.1285 17.9498 96.0583 18.12 96.9732 18.3714C98.781 18.9114 100.545 19.91 101.755 21.4707C101.873 21.626 101.991 21.7814 102.109 21.9367L101.961 21.8775C104.81 21.1896 107.798 21.9367 110.1 23.453C112.424 24.962 114.151 27.3068 114.712 29.8883L114.638 29.7921C115.782 30.3247 116.918 30.8572 117.966 31.5155C119.006 32.1665 119.966 32.9505 120.689 33.9121C121.404 34.8811 121.84 36.0202 121.943 37.1667C122.054 38.3132 121.766 39.4967 121.065 40.3769V40.2216C122.415 41.5678 123.109 43.3578 123.271 45.0591C123.434 46.7677 123.087 48.4394 122.327 49.7708C122.157 50.1111 121.921 50.4144 121.707 50.7102C121.478 50.9987 121.249 51.2724 121.065 51.5609C120.881 51.8493 120.762 52.1674 120.74 52.4929C120.711 52.8183 120.748 53.1512 120.777 53.4766C120.888 54.7785 120.866 55.9916 120.703 57.0715C120.541 58.144 120.239 59.0908 119.796 59.8157C119.368 60.548 118.822 61.051 118.342 61.3616C117.855 61.6871 117.427 61.8202 117.191 61.9904C116.948 62.1531 116.859 62.2862 116.852 62.2788C116.852 62.2788 116.925 62.1383 117.169 61.9608C117.405 61.7684 117.833 61.6279 118.305 61.2951C118.778 60.977 119.294 60.474 119.707 59.7565C120.128 59.039 120.416 58.107 120.571 57.0493C120.718 55.9842 120.733 54.7859 120.607 53.4914C120.578 53.166 120.534 52.8331 120.563 52.4781C120.585 52.123 120.718 51.7754 120.91 51.4647C121.102 51.154 121.338 50.8804 121.559 50.5919C121.766 50.296 121.987 50.0075 122.157 49.6673C122.888 48.3654 123.22 46.7382 123.05 45.0739C122.888 43.417 122.201 41.6714 120.888 40.3843L120.814 40.3103L120.881 40.229C121.537 39.4079 121.803 38.291 121.692 37.1889C121.589 36.0868 121.168 34.992 120.475 34.0674C119.781 33.1428 118.844 32.381 117.818 31.7375C116.793 31.0939 115.664 30.5688 114.52 30.0362L114.461 30.0066L114.446 29.94C113.9 27.4325 112.218 25.1543 109.945 23.6823C107.695 22.203 104.78 21.4855 102.02 22.1438L101.932 22.166L101.873 22.0846C101.762 21.9367 101.644 21.7888 101.533 21.6408C100.375 20.1319 98.663 19.1555 96.8995 18.6303C96.0066 18.3788 95.099 18.2235 94.1841 18.1495C93.2691 18.0978 92.3615 18.0978 91.4687 18.1939C90.5758 18.2975 89.6904 18.438 88.8418 18.6821C87.9859 18.904 87.1521 19.2147 86.2814 19.3922C85.846 19.481 85.4033 19.5401 84.9606 19.5401C84.5179 19.5401 84.0825 19.481 83.6545 19.407C83.2339 19.333 82.8134 19.2517 82.4001 19.1851C81.9869 19.1481 81.5737 19.0889 81.1605 19.0963C80.3341 19.0741 79.5298 19.2147 78.7476 19.3848C77.9803 19.6067 77.2202 19.8582 76.534 20.2354C75.132 20.9381 73.9441 21.9293 72.9627 23.024C71.9739 24.1188 71.236 25.3614 70.7269 26.6263C70.4686 27.2624 70.2251 27.9133 69.8119 28.4607C69.3987 29.008 68.8527 29.4001 68.3362 29.7551C67.8123 30.1102 67.3031 30.4504 66.8678 30.8572C66.4325 31.2567 66.0561 31.7005 65.7388 32.1665C65.1043 33.0985 64.7132 34.1118 64.5287 35.0882C64.3369 36.0646 64.3959 37.004 64.4549 37.862C64.514 38.72 64.573 39.5115 64.4918 40.2216C64.4328 40.9317 64.2114 41.5456 63.9384 42.0264C63.6654 42.4998 63.3776 42.8622 63.171 43.1729C62.9644 43.4762 62.8242 43.7277 62.7431 43.8978C62.6619 44.0679 62.6324 44.1641 62.625 44.1567L62.6398 44.1715Z" fill="#455A64"/>
<path d="M97.5377 19.9691C97.5377 19.9691 97.2868 19.8286 96.8293 19.6067C96.3718 19.3922 95.6708 19.1185 94.7632 19.0223C93.863 18.9188 92.7562 19.0076 91.6642 19.5031C90.5795 19.9913 89.5317 20.8863 88.8602 22.092C88.6684 22.4397 88.506 22.8095 88.4027 23.1646C88.3068 23.5196 88.292 23.9042 88.4765 24.1631L88.7126 24.4812L88.3289 24.3776C87.2812 24.0891 86.2039 24.2963 85.4143 24.7475C84.61 25.1987 84.1009 25.894 83.8279 26.5079C83.5475 27.1366 83.4811 27.6914 83.4737 28.0686C83.4663 28.4459 83.4958 28.653 83.4737 28.6604C83.4663 28.6604 83.4516 28.6086 83.4294 28.5124C83.4073 28.4163 83.3852 28.2683 83.3778 28.0686C83.363 27.684 83.3999 27.0996 83.6655 26.4339C83.9312 25.7756 84.4477 25.0285 85.2963 24.533C86.1301 24.0374 87.2738 23.8007 88.4027 24.1039L88.2552 24.3185C87.9895 23.9486 88.0264 23.4752 88.1297 23.0832C88.2404 22.6838 88.4101 22.3139 88.6167 21.9441C89.3177 20.6792 90.4245 19.7546 91.5608 19.259C92.7119 18.7561 93.8704 18.6895 94.7928 18.8226C95.7225 18.9484 96.4308 19.259 96.881 19.5105C97.1097 19.6363 97.2794 19.7472 97.3827 19.836C97.4934 19.9174 97.545 19.9691 97.5377 19.9765V19.9691Z" fill="#455A64"/>
<path d="M112.94 30.7093C112.94 30.7093 112.845 30.8499 112.616 31.0496C112.387 31.2493 112.04 31.5304 111.553 31.804C111.066 32.0703 110.432 32.3366 109.672 32.3884C108.926 32.4402 108.034 32.2774 107.325 31.6931L107.532 31.6561C107.443 31.7818 107.355 31.915 107.259 32.0481C107.155 32.1739 107.045 32.2996 106.941 32.4254C106.255 33.1503 105.414 33.6532 104.595 33.9121C103.776 34.1858 102.994 34.2598 102.345 34.2154C101.695 34.171 101.193 34.0157 100.854 33.8899C100.522 33.742 100.352 33.6458 100.36 33.631C100.382 33.5719 101.09 33.9713 102.352 34.0157C102.979 34.0379 103.724 33.9417 104.506 33.668C105.281 33.4017 106.078 32.921 106.735 32.2331C106.838 32.1147 106.941 31.9964 107.037 31.878C107.126 31.7523 107.215 31.6265 107.296 31.5082L107.384 31.375L107.502 31.4712C108.137 31.9964 108.956 32.1665 109.657 32.1295C110.365 32.0999 110.985 31.8706 111.465 31.6339C112.424 31.1383 112.911 30.6649 112.94 30.7093Z" fill="#455A64"/>
<path d="M118.002 39.4523C118.002 39.4523 118.002 39.5115 117.979 39.6298C117.95 39.7408 117.891 39.9035 117.773 40.0884C117.544 40.4582 117.035 40.9169 116.26 41.1166C115.485 41.3237 114.519 41.1757 113.56 40.8429C113.08 40.6728 112.578 40.5026 112.062 40.2659C111.56 40.0292 111.021 39.6816 110.748 39.0824C110.726 39.0307 110.704 38.9789 110.689 38.9271L110.911 38.9937C110.01 39.7112 109.073 40.3399 108.121 40.7023C107.177 41.0796 106.225 41.1462 105.472 40.9982C104.712 40.8577 104.152 40.547 103.834 40.2659C103.672 40.1328 103.554 40.007 103.487 39.9183C103.421 39.8295 103.384 39.7777 103.392 39.7777C103.414 39.763 103.561 39.9405 103.893 40.1846C104.225 40.4287 104.771 40.7023 105.495 40.8059C106.218 40.9169 107.11 40.8355 108.018 40.4656C108.926 40.1032 109.826 39.4893 110.726 38.7792L110.874 38.6608L110.947 38.8457C110.962 38.8827 110.977 38.9271 110.999 38.9715C111.22 39.4597 111.7 39.7851 112.172 40.0144C112.652 40.2437 113.161 40.4213 113.633 40.5914C114.57 40.9316 115.478 41.087 116.201 40.9169C116.932 40.7541 117.426 40.3547 117.67 40.0218C117.92 39.689 117.957 39.4449 117.987 39.4523H118.002Z" fill="#455A64"/>
<path d="M87.519 58.6692C87.46 59.5938 88.1831 60.4074 89.1423 60.4888C90.1016 60.5702 90.928 59.8897 90.9944 58.9724C91.0534 58.0479 90.3303 57.2342 89.3711 57.1528C88.4118 57.0715 87.578 57.752 87.519 58.6766V58.6692Z" fill="#263238"/>
<path d="M70.5971 58.2032C70.5381 59.1278 71.2612 59.9414 72.2205 60.0228C73.1797 60.1042 74.0061 59.4236 74.0725 58.5064C74.1316 57.5818 73.4084 56.7682 72.4492 56.6868C71.49 56.6055 70.6562 57.286 70.5971 58.2106V58.2032Z" fill="#263238"/>
<path d="M69.9078 52.3967C70.1144 52.6334 71.4721 51.694 73.3463 51.7606C75.2205 51.7976 76.5708 52.8109 76.7848 52.589C76.8881 52.4929 76.6815 52.0712 76.0986 51.6126C75.523 51.154 74.5269 50.7028 73.3537 50.6659C72.1805 50.6363 71.1843 51.0357 70.6088 51.4573C70.0185 51.8863 69.8045 52.2858 69.9078 52.3967Z" fill="#263238"/>
<path d="M88.587 53.3361C88.8232 53.5506 90.0702 52.4781 91.9444 52.3449C93.8186 52.1896 95.2575 53.055 95.4493 52.8109C95.5379 52.7 95.2943 52.3079 94.6598 51.9085C94.04 51.5165 93.0069 51.1614 91.8337 51.2502C90.6679 51.339 89.716 51.8419 89.1773 52.3227C88.6313 52.8035 88.469 53.2325 88.5797 53.3287L88.587 53.3361Z" fill="#263238"/>
<path d="M81.5882 67.4714C81.603 67.3678 80.4371 67.1237 78.5556 66.8204C78.0759 66.7539 77.6258 66.6429 77.5594 66.3175C77.4561 65.9698 77.6775 65.452 77.9284 64.9047C78.4154 63.7582 78.9245 62.5525 79.4631 61.2876C81.603 56.1395 83.1673 51.8937 82.9533 51.8123C82.7467 51.731 80.843 55.8362 78.7105 60.9844C78.194 62.2566 77.6996 63.4623 77.2348 64.6236C77.0355 65.1636 76.7035 65.7775 76.9248 66.5024C77.0429 66.8648 77.3897 67.1385 77.6922 67.2347C77.9948 67.3382 78.2678 67.353 78.5039 67.3752C80.4076 67.5379 81.5882 67.5823 81.5956 67.4788L81.5882 67.4714Z" fill="#263238"/>
<path d="M84.493 70.2674C85.194 70.3635 85.9024 70.7334 86.3082 71.3251C86.7214 71.9168 87.0166 73.3 86.6107 73.8326C86.2639 74.2912 84.7144 74.2912 83.6445 74.1581C83.1501 74.0989 82.7369 73.7513 82.5745 73.2779L82.1539 72.0648C81.9104 71.3695 82.272 70.5928 82.973 70.3783C83.4452 70.2304 83.9765 70.2008 84.5004 70.2748L84.493 70.2674Z" fill="#FF9A6C"/>
<path d="M87.7295 46.4571C88.0099 46.9231 89.8029 46.3239 92.0165 46.1686C94.2302 45.9615 96.097 46.2574 96.2962 45.747C96.3848 45.5029 95.9863 45.0961 95.1894 44.741C94.3925 44.3934 93.1898 44.1493 91.8616 44.2528C90.5334 44.3638 89.3823 44.8002 88.6592 45.281C87.9287 45.7544 87.604 46.2278 87.7295 46.4571Z" fill="#263238"/>
<path d="M70.3713 49.3048C70.7624 49.719 72.2529 49.2382 74.0533 49.1717C75.8538 49.0459 77.3885 49.3714 77.728 48.9128C77.8755 48.6909 77.6247 48.2693 76.9458 47.8846C76.2743 47.5 75.1675 47.1967 73.9353 47.2633C72.6956 47.3299 71.6331 47.7441 71.0207 48.2027C70.3935 48.6613 70.2016 49.1051 70.3713 49.3122V49.3048Z" fill="#263238"/>
<path d="M135.11 127.504L117.387 191.952L123.607 210.422C100.201 220.763 66.3696 224.047 39.6953 211.095C39.6953 211.095 48.7565 184.452 49.059 179.259C49.3689 174.074 47.1405 143.769 49.605 133.606C52.0695 123.443 59.131 101.667 59.131 101.667L79.8949 98.3604C89.4136 103.486 95.5084 104.248 105.743 98.3087L125.083 102.54L135.11 127.504Z" fill="#455A64"/>
<path d="M59.442 101.637C59.442 101.637 48.2927 102.821 43.8064 112.015C39.3718 121.098 27.0639 161.285 26.3925 168.001C25.721 174.718 31.1592 183.757 35.8963 184.999L50.2628 170.642L62.1796 171.707L77.8743 98.3161L59.4568 101.637H59.442Z" fill="#455A64"/>
<g opacity="0.3">
<path d="M51.0258 126.328C47.5578 135.344 46.5764 145.3 48.2218 154.82C45.6024 153.844 42.9903 152.86 40.3708 151.884C42.5107 154.842 45.322 157.313 48.5244 159.051C46.4067 158.437 44.2373 157.816 42.0384 157.964C39.8395 158.104 37.5669 159.169 36.5781 161.144C39.1459 160.671 41.758 160.205 44.348 160.508C46.9379 160.812 49.55 162.01 50.9446 164.221C49.0114 155.848 48.2661 147.201 48.7384 138.621" fill="black"/>
</g>
<path d="M76.9414 105.868C77.303 104.655 79.3469 93.4637 80.1733 90.86C81.3465 87.1838 90.8652 80.6228 90.8652 80.6228C90.8652 80.6228 89.3746 77.1759 85.3163 78.966C80.5201 81.0888 78.1441 84.6615 76.934 83.9292C75.7239 83.2043 68.1902 75.5117 66.1315 75.7557C64.0802 75.9998 63.6227 78.1153 64.3532 78.9586C65.0763 79.8092 65.8954 81.2072 65.8954 81.2072C65.8954 81.2072 61.5419 79.8979 62.3904 84.6689C62.3904 84.6689 57.4319 81.5696 57.9189 88.1158C57.9189 88.1158 54.6575 86.7844 53.927 89.0848C53.2038 91.3852 55.3511 94.0554 56.4431 95.8676C57.5278 97.6872 61.0622 108.228 61.0622 108.228L61.1065 117.525L78.4393 113.953L76.9488 105.868H76.9414Z" fill="#FFBF9D"/>
<path d="M76.9421 105.868C76.9421 105.868 77.0012 106.053 77.0823 106.401C77.1635 106.793 77.2742 107.303 77.407 107.961C77.6874 109.367 78.0785 111.371 78.5802 113.931L78.6097 114.071L78.4695 114.101C74.1898 115.003 68.2721 116.261 61.1589 117.762L60.8711 117.821V117.525C60.849 114.663 60.8269 111.534 60.7974 108.228L60.8121 108.309C59.5725 104.736 58.2886 100.89 56.6726 96.9994C55.8831 95.128 54.2376 93.5007 53.6473 91.2299C53.4997 90.6677 53.4333 90.0612 53.5293 89.4546C53.6178 88.8703 53.8982 88.2046 54.4664 87.8347C55.0198 87.4649 55.6839 87.3835 56.2815 87.4279C56.8866 87.4723 57.4621 87.6055 58.0377 87.82L57.6171 88.1306C57.595 87.4945 57.5654 86.8436 57.6614 86.1705C57.7794 85.5195 57.927 84.7873 58.4878 84.2399C59.0338 83.663 59.8898 83.5372 60.5834 83.663C61.2991 83.7813 61.9411 84.0328 62.5609 84.4026L62.0886 84.7207C61.9706 83.8405 61.823 82.7753 62.4133 81.8064C62.7822 81.1998 63.4685 80.8522 64.103 80.7634C64.7524 80.6673 65.3722 80.7338 65.992 80.8966L65.6305 81.3552C65.1951 80.6303 64.7302 79.898 64.2137 79.2545C63.8817 78.9216 63.7046 78.3373 63.7267 77.8639C63.7489 77.3757 63.9186 76.9023 64.199 76.5029C64.4794 76.1034 64.8778 75.8002 65.3205 75.63C65.5419 75.5487 65.7707 75.4821 65.9994 75.4525C66.2208 75.4229 66.5307 75.4525 66.752 75.5191C67.6449 75.8076 68.3237 76.3105 69.0099 76.7913C71.7106 78.7737 74.0275 81.0445 76.3666 83.0934C76.647 83.3227 76.9864 83.6482 77.193 83.6999C77.3996 83.7665 77.7538 83.6038 78.049 83.4263C78.6688 83.0416 79.2591 82.546 79.8494 82.0874C81.03 81.148 82.2549 80.2678 83.5388 79.5429C84.8153 78.8698 86.1582 78.1227 87.6709 78.1819C89.1909 78.2115 90.497 79.2249 91.102 80.5045L91.1906 80.6894L91.0135 80.8152C87.3019 83.4558 83.9667 86.0595 81.6129 88.8629C81.0226 89.5656 80.5651 90.3127 80.3069 91.1041C80.0634 91.9178 79.8789 92.7314 79.6944 93.5081C79.355 95.0614 79.0377 96.4964 78.7573 97.7834C78.2113 100.335 77.7833 102.347 77.4808 103.767C77.3258 104.455 77.2078 104.981 77.1119 105.328C77.0233 105.676 76.9421 105.853 76.9421 105.853C76.9274 105.853 76.9717 105.668 77.0381 105.313C77.1119 104.921 77.2078 104.396 77.3332 103.738C77.6062 102.31 77.9825 100.291 78.4695 97.7243C78.7352 96.4224 79.0303 94.9874 79.3476 93.4267C79.5173 92.6427 79.6944 91.829 79.9379 90.9932C80.2036 90.1352 80.6979 89.3289 81.2882 88.6114C83.679 85.7193 86.9994 83.0934 90.7257 80.401L90.6372 80.7116C90.1059 79.6169 88.9548 78.7293 87.6561 78.7145C86.3501 78.6553 85.0662 79.3506 83.8192 80.0237C82.5721 80.7338 81.3915 81.5919 80.2183 82.5386C79.6206 83.0046 79.0451 83.5002 78.3589 83.9292C78.0121 84.1142 77.621 84.3878 77.0528 84.2695C76.5215 84.0698 76.3223 83.7887 75.9903 83.5372C73.6291 81.4735 71.3121 79.2175 68.6631 77.2869C68.0064 76.8209 67.3054 76.3401 66.5897 76.1108C66.4126 76.0738 66.2872 76.0443 66.1027 76.0664C65.9182 76.0886 65.7338 76.1478 65.5641 76.207C65.2246 76.3401 64.9221 76.5694 64.7155 76.8727C64.2949 77.457 64.1916 78.3447 64.7007 78.8624C65.2615 79.5577 65.7264 80.2826 66.1765 81.0445L66.5676 81.7028L65.8149 81.5031C64.804 81.2294 63.4759 81.259 62.9446 82.1466C62.5019 82.8271 62.5904 83.7961 62.7085 84.6097L62.8044 85.2607L62.2362 84.9278C61.7049 84.6171 61.0851 84.373 60.4948 84.2769C59.8971 84.1733 59.2995 84.2769 58.9305 84.6763C58.1631 85.5048 58.1853 86.9101 58.2369 88.0788L58.2591 88.5522L57.8163 88.3895C56.8423 88.0345 55.6174 87.82 54.8279 88.3377C54.4368 88.5892 54.2302 89.0478 54.1417 89.5508C54.0605 90.0464 54.1122 90.5716 54.245 91.0745C54.5106 92.0879 55.0419 93.0347 55.6027 93.9445C56.1561 94.8469 56.8202 95.7419 57.226 96.7627C58.8494 100.705 60.1111 104.537 61.336 108.132L61.3508 108.176V108.22C61.3508 111.519 61.3581 114.656 61.3655 117.518L61.0777 117.281C68.2057 115.854 74.1382 114.663 78.4253 113.805L78.3146 113.975C77.8719 111.394 77.5177 109.374 77.2742 107.954C77.1709 107.296 77.0823 106.778 77.0233 106.393C76.9717 106.038 76.9495 105.861 76.9643 105.861L76.9421 105.868Z" fill="#FF9A6C"/>
<path d="M65.9077 81.3256C65.8634 81.3848 66.8374 82.2206 68.0107 83.2931C69.1839 84.3583 70.1062 85.2607 70.1653 85.2089C70.2169 85.1645 69.3683 84.1734 68.1877 83.1008C67.0071 82.0209 65.952 81.2738 65.9077 81.3256Z" fill="#FF9A6C"/>
<path d="M62.0374 84.4101C61.9783 84.4396 62.3473 85.379 63.1073 86.348C63.8599 87.3244 64.679 87.9235 64.7159 87.8644C64.7675 87.8052 64.0444 87.1395 63.3139 86.1853C62.576 85.2385 62.1112 84.3731 62.0374 84.4027V84.4101Z" fill="#FF9A6C"/>
<path d="M57.9823 87.8791C57.9232 87.9235 58.3291 88.5892 58.8899 89.3659C59.4506 90.15 59.9524 90.7417 60.0114 90.7047C60.0705 90.6603 59.6646 89.9946 59.1038 89.218C58.5431 88.4339 58.0413 87.8422 57.9823 87.8791Z" fill="#FF9A6C"/>
<path d="M125.074 102.547L106.436 121.187L87.3171 145.271L79.7096 113.176L60.2812 117.178C60.2812 117.178 61.6537 153.43 67.6305 169.858C68.7669 172.987 72.1316 175.309 73.6369 176.027C83.03 180.502 92.2019 173.578 92.2019 173.578C92.2019 173.578 131.391 147.209 135.641 129.56C137.648 121.224 136.844 111.312 133.427 107.237C130.424 103.649 125.082 102.54 125.082 102.54L125.074 102.547Z" fill="#455A64"/>
<path d="M135.645 129.568C135.645 129.568 135.6 129.76 135.497 130.137C135.372 130.507 135.276 131.084 134.973 131.787C134.479 133.229 133.468 135.256 131.896 137.682C130.317 140.108 128.14 142.911 125.373 145.951C122.599 148.977 119.271 152.268 115.405 155.7C111.553 159.14 107.177 162.735 102.352 166.426C99.9388 168.268 97.4152 170.139 94.7736 172.01C94.1095 172.476 93.4454 172.942 92.7666 173.408C92.1025 173.867 91.4015 174.355 90.6784 174.762C89.2248 175.59 87.6678 176.286 86.0224 176.796C82.7609 177.854 79.0716 178.068 75.6109 176.996C75.1682 176.892 74.7697 176.678 74.3418 176.522C73.9212 176.352 73.4932 176.197 73.0947 175.96C72.2904 175.516 71.5452 174.976 70.8294 174.392C69.4275 173.209 68.1509 171.759 67.4647 169.969C66.2251 166.441 65.3323 162.75 64.5501 158.985C63.8344 155.205 63.1776 151.358 62.6759 147.446C61.3034 137.001 60.5287 126.823 60.0859 117.193V117.037L60.2335 117.008C67.0146 115.617 73.5153 114.278 79.6692 113.013L79.8316 112.977L79.8685 113.139C82.7388 125.329 85.2992 136.18 87.4317 145.241L87.2104 145.182C93.7701 138.103 99.0385 132.423 102.676 128.502C104.491 126.557 105.901 125.048 106.86 124.02C107.332 123.517 107.694 123.132 107.952 122.866C108.196 122.607 108.328 122.481 108.328 122.481C108.328 122.481 108.21 122.622 107.974 122.888C107.731 123.162 107.377 123.554 106.912 124.064C105.96 125.107 104.573 126.631 102.78 128.591C99.164 132.534 93.925 138.237 87.4022 145.352L87.2325 145.537L87.1735 145.293C85.0189 136.239 82.4289 125.396 79.529 113.213L79.7283 113.339C73.5744 114.611 67.081 115.95 60.2999 117.355L60.4475 117.163C60.8976 126.786 61.6798 136.957 63.0448 147.379C63.5392 151.292 64.1959 155.123 64.9117 158.896C65.6938 162.646 66.5793 166.33 67.8041 169.821C68.4535 171.522 69.6857 172.935 71.0508 174.089C71.7444 174.658 72.4749 175.191 73.2497 175.62C73.626 175.842 74.054 175.99 74.4598 176.16C74.873 176.308 75.2715 176.522 75.6994 176.626C79.0789 177.676 82.6872 177.477 85.8969 176.441C87.5129 175.938 89.0477 175.258 90.4865 174.444C91.2097 174.037 91.8664 173.578 92.5526 173.105C93.2241 172.639 93.8955 172.173 94.5522 171.714C97.1938 169.85 99.7174 167.994 102.13 166.152C106.956 162.476 111.339 158.903 115.191 155.478C119.065 152.069 122.4 148.799 125.182 145.789C127.956 142.771 130.14 139.99 131.734 137.586C133.313 135.174 134.346 133.17 134.863 131.742C135.18 131.047 135.283 130.477 135.423 130.107C135.541 129.738 135.608 129.545 135.608 129.545L135.645 129.568Z" fill="#263238"/>
<path d="M88.1938 72.7083C88.1569 72.8119 87.7584 72.7675 87.146 72.6418C86.5335 72.5234 85.7071 72.3311 84.7995 72.2645C83.8845 72.1905 83.0655 72.2571 82.5047 72.4051C81.9292 72.5382 81.6857 72.7749 81.5897 72.7379C81.5455 72.7157 81.5455 72.59 81.6635 72.4198C81.7742 72.2497 82.003 72.0574 82.3055 71.9021C82.9179 71.584 83.8624 71.4213 84.8585 71.5026C85.8621 71.584 86.7254 71.8725 87.3083 72.1314C87.8912 72.3903 88.2233 72.6196 88.1938 72.7157V72.7083Z" fill="#263238"/>
<g opacity="0.3">
<path d="M117.81 191.545C117.81 191.545 109.28 190.495 104.691 189.785C102.182 189.393 98.3598 188.993 97.6367 188.291C96.7365 187.418 96.7439 185.961 96.6479 184.711C95.0172 163.371 102.337 140.293 124.96 126.527L130.731 128.051L130.354 141.95L117.81 191.545Z" fill="black"/>
</g>
<path d="M251.151 25.2505C254.044 25.5094 256.958 23.3125 257.504 20.45C258.05 17.5874 256.161 14.466 253.379 13.6301C255.128 11.7439 255.505 8.70387 254.272 6.44784C253.033 4.18442 250.28 2.87519 247.749 3.34119C247.58 0.804086 246.008 -1.59987 243.75 -2.76117C241.492 -3.92247 238.629 -3.79672 236.475 -2.4505C233.612 -4.79529 229.089 -4.7731 226.248 -2.40612C223.776 -2.80555 221.119 -1.42235 220.013 0.833674C218.913 3.0897 219.452 6.04102 221.282 7.75708" fill="#263238"/>
<path d="M225.105 3.48905L226.411 3.45947C239.524 3.1562 250.665 12.9865 252.031 26.0641C253.292 38.2244 254.532 51.6792 254.606 58.218C254.753 71.7541 241.302 74.1729 241.302 74.1729L242.822 90.4088L210.031 90.1573L205.758 31.2566C204.223 17.2323 211.086 4.65035 225.113 3.49645L225.105 3.48905Z" fill="#FFBF9D"/>
<path d="M241.312 74.1655C241.312 74.1655 231.897 74.8682 222.695 69.3724C222.695 69.3724 228.178 79.2397 241.622 77.7086L241.312 74.1729V74.1655Z" fill="#FF9A6C"/>
<path d="M247.902 40.7468C247.961 41.7675 247.149 42.6551 246.087 42.7439C245.024 42.8253 244.117 42.0708 244.058 41.05C243.999 40.0293 244.81 39.1343 245.866 39.0529C246.928 38.9715 247.836 39.7334 247.895 40.7468H247.902Z" fill="#263238"/>
<path d="M249.284 32.7508C249.047 33.0097 247.564 31.9594 245.491 32.0112C243.417 32.0333 241.92 33.1429 241.691 32.8914C241.58 32.7804 241.809 32.3218 242.458 31.8188C243.1 31.3233 244.2 30.8277 245.498 30.8055C246.79 30.7833 247.889 31.2345 248.524 31.7079C249.173 32.1813 249.402 32.6325 249.284 32.7508Z" fill="#263238"/>
<path d="M230.035 40.7468C230.094 41.7675 229.282 42.6551 228.22 42.7365C227.157 42.8179 226.25 42.0634 226.191 41.0426C226.131 40.0219 226.943 39.1269 228.006 39.0455C229.068 38.9641 229.976 39.726 230.035 40.7394V40.7468Z" fill="#263238"/>
<path d="M228.893 33.6162C228.657 33.8751 227.174 32.8248 225.1 32.8766C223.027 32.8988 221.529 34.0083 221.3 33.7568C221.189 33.6458 221.418 33.1872 222.075 32.6842C222.717 32.1887 223.816 31.6931 225.108 31.6709C226.399 31.6487 227.498 32.0999 228.133 32.5733C228.782 33.0467 229.011 33.4979 228.893 33.6162Z" fill="#263238"/>
<path d="M236.777 48.8611C236.763 48.7427 238.047 48.4912 240.135 48.1731C240.666 48.1066 241.16 47.9882 241.242 47.6258C241.36 47.2412 241.123 46.6716 240.85 46.0577C240.319 44.7854 239.773 43.4466 239.19 42.0486C236.881 36.3383 235.198 31.6413 235.427 31.5525C235.656 31.4638 237.714 36.0128 240.024 41.7231C240.577 43.1285 241.116 44.4747 241.618 45.7544C241.832 46.3535 242.193 47.0266 241.943 47.8329C241.81 48.2323 241.426 48.5282 241.087 48.6318C240.747 48.7427 240.452 48.7575 240.186 48.7797C238.083 48.9424 236.785 48.9794 236.77 48.8685L236.777 48.8611Z" fill="#263238"/>
<path d="M229.329 29.3187C229.07 29.8513 227.277 29.3187 225.086 29.3039C222.894 29.2373 221.064 29.6886 220.85 29.1486C220.754 28.8897 221.138 28.4089 221.913 27.9651C222.688 27.5213 223.868 27.1736 225.182 27.1958C226.495 27.2254 227.646 27.6248 228.377 28.0982C229.115 28.5716 229.447 29.0672 229.336 29.3187H229.329Z" fill="#263238"/>
<path d="M249.179 24.1705C248.751 24.6513 247.032 24.2001 244.973 24.2297C242.915 24.1927 241.181 24.6365 240.767 24.1484C240.583 23.9117 240.848 23.4309 241.601 22.9649C242.339 22.4989 243.586 22.1068 245.003 22.1142C246.419 22.1142 247.652 22.5211 248.382 22.9871C249.12 23.4531 249.371 23.9339 249.187 24.1705H249.179Z" fill="#263238"/>
<path d="M250.588 19.8878C250.588 19.8878 246.832 11.4924 242.707 9.61365C237.719 7.33543 235.72 12.8165 230.983 11.6034C226.245 10.3977 221.486 8.20826 216.764 11.9658C211.598 16.0784 214.122 18.8227 213.938 24.8289C213.185 49.2087 208.913 56.1913 207.385 44.7558C207.215 43.5058 203.718 42.5812 203.076 37.2851C202.25 30.4208 201.792 22.0625 203.209 17.1436C204.404 12.994 206.677 10.0944 210.809 6.86204C217.324 1.75825 226.422 1.44019 232.621 1.91358C238.819 2.39437 250.905 9.24381 250.588 19.873V19.8878Z" fill="#263238"/>
<path d="M208.232 44.3712C208.099 42.2853 206.262 40.6802 204.196 40.9243C201.687 41.2202 198.913 42.7217 199.2 47.9365C199.709 57.1825 208.867 54.7637 208.867 54.4974C208.867 54.3199 208.483 48.2471 208.232 44.3786V44.3712Z" fill="#FFBF9D"/>
<path d="M206.666 51.1245C206.621 51.0949 206.511 51.2428 206.245 51.3834C205.987 51.5165 205.537 51.6275 205.042 51.4721C204.046 51.1689 203.139 49.6599 203.006 47.9956C202.939 47.1524 203.065 46.3462 203.33 45.6656C203.574 44.9704 203.987 44.4748 204.467 44.3638C204.946 44.2233 205.315 44.497 205.441 44.7558C205.581 45.0073 205.529 45.1923 205.581 45.207C205.611 45.2292 205.773 45.0443 205.677 44.6597C205.625 44.4748 205.507 44.2677 205.279 44.0975C205.05 43.9274 204.718 43.8534 204.378 43.9126C203.67 44.0014 203.065 44.6893 202.777 45.4364C202.452 46.1908 202.283 47.1006 202.364 48.0474C202.526 49.904 203.574 51.5979 204.924 51.9085C205.581 52.0417 206.112 51.8198 206.378 51.5831C206.651 51.339 206.688 51.1319 206.658 51.1171L206.666 51.1245Z" fill="#FF9A6C"/>
<path d="M207.998 26.4414C209.216 27.2328 210.5 28.0465 211.953 28.1574C213.4 28.2684 215.03 27.3956 215.244 25.9532C215.34 25.3097 215.163 24.5626 215.576 24.0522C216.063 23.4457 217 23.6084 217.775 23.675C220.468 23.8969 223.531 20.8494 224.158 18.2161C224.866 19.2295 226.371 19.5032 227.39 18.8079C228.408 18.1126 228.777 17.7206 229.566 16.7738C230.356 15.827 231.47 14.969 232.695 15.1095C233.381 15.1909 234.031 15.5829 234.709 15.5089C235.92 15.3758 236.48 13.9334 236.635 12.7277C236.79 11.5146 236.901 10.1093 237.912 9.42875C238.849 8.80002 240.089 9.11808 241.21 9.25862C242.332 9.39916 243.763 9.10329 244.021 8.00117C244.162 7.42422 243.896 6.82508 243.571 6.32949C242.081 4.09566 238.923 3.16366 236.458 4.2288C235.484 1.19612 232.577 -1.11908 229.404 -1.37797C226.231 -1.63686 222.992 0.167959 221.531 3.00833C219.539 1.27748 216.69 0.604371 214.13 1.24789C211.577 1.89881 209.385 3.85156 208.456 6.32209C206.198 5.78213 203.66 6.71412 202.28 8.58552C200.9 10.4569 200.76 13.1641 201.94 15.1687C200.302 16.1598 198.922 17.8463 198.93 19.7621C198.937 21.6778 200.848 23.5418 202.678 22.9945C201.97 24.5034 202.619 26.5154 204.08 27.3142C205.541 28.1131 207.578 27.5805 208.463 26.1603" fill="#263238"/>
<path d="M237.208 6.9434C237.208 6.9434 237.215 7.00258 237.208 7.11353C237.2 7.22448 237.193 7.39461 237.163 7.60912C237.09 8.03813 236.935 8.67426 236.536 9.40654C236.138 10.1314 235.511 10.9673 234.544 11.6404C233.592 12.3209 232.286 12.8534 230.788 12.8091L230.943 12.602C231.246 13.386 231.194 14.3402 230.818 15.1612C230.463 15.9971 229.895 16.7442 229.29 17.4764C228.98 17.8241 228.715 18.2383 228.279 18.5638C227.859 18.8744 227.35 19.0668 226.826 19.1407C225.785 19.2961 224.605 19.0002 223.83 18.1422L224.169 18.0386C223.978 19.8804 222.974 21.7518 221.343 22.9057C220.48 23.564 219.403 23.9782 218.333 23.9708C217.263 23.9856 216.267 23.6972 215.33 23.3865L215.573 23.2681C215.101 24.4294 214.363 25.428 213.455 26.1751C212.563 26.9222 211.36 27.3734 210.26 27.1293C208.069 26.715 206.586 24.9324 206.254 23.2312L206.468 23.3273C205.398 23.9412 204.239 24.03 203.31 23.8673C202.365 23.7193 201.612 23.3199 201.074 22.9279C200.535 22.5285 200.21 22.1068 200.019 21.8184C199.842 21.5151 199.76 21.3524 199.775 21.345C199.819 21.308 200.1 22.0403 201.17 22.7947C201.701 23.1572 202.439 23.5122 203.346 23.638C204.247 23.7711 205.346 23.6676 206.328 23.0758L206.497 22.9723L206.541 23.1646C206.874 24.7549 208.305 26.4192 210.334 26.7742C211.33 26.9813 212.385 26.5819 213.234 25.8792C214.083 25.1765 214.791 24.2149 215.226 23.1202L215.293 22.9501L215.47 23.0093C216.392 23.3125 217.351 23.5862 218.34 23.5714C219.329 23.5714 220.296 23.2016 221.115 22.5802C222.657 21.4855 223.594 19.7399 223.786 17.9868L223.83 17.5504L224.125 17.8833C224.782 18.6229 225.837 18.904 226.774 18.7635C227.239 18.6969 227.696 18.5342 228.058 18.2605C228.412 18.0016 228.693 17.5948 229.01 17.2397C229.615 16.5223 230.168 15.8048 230.5 15.0281C230.855 14.2588 230.906 13.423 230.648 12.7129L230.567 12.491H230.796C232.205 12.565 233.467 12.0768 234.396 11.4407C235.341 10.8045 235.968 10.0131 236.381 9.32517C237.193 7.90499 237.141 6.92861 237.208 6.9434Z" fill="#455A64"/>
<path d="M170.819 88.9517C170.819 88.9517 136.124 101.201 126.088 106.26C118.245 110.21 113.279 124.553 125.343 130.529C134.338 134.989 183.045 126.468 183.045 126.468L170.819 88.9443V88.9517Z" fill="#FFBF9D"/>
<path d="M278.52 205.821C276.793 201.871 277.11 201.509 277.11 201.509L272.211 158.511L267.503 116.682L263.688 85.7267L241.633 80.9928C241.633 80.9928 239.095 88.0419 228.432 88.2564C216.154 88.5005 209.115 77.4941 209.115 77.4941L173.852 85.0832L187.111 176.256L188.698 200.813C188.698 200.813 186.063 204.786 186.063 209.054C186.063 213.321 185.894 216.154 185.894 216.154C218.626 225.171 251.107 232.975 280.992 224.247C280.992 224.247 280.246 209.756 278.52 205.814V205.821Z" fill="#455A64"/>
<path d="M255.641 84.1216C255.641 84.1216 268.354 85.5418 272.863 90.3423C277.371 95.1428 291.789 118.887 291.789 118.887L270.848 147.601L261.145 134.331L255.641 84.1216Z" fill="#455A64"/>
<path d="M265.325 98.9818C265.502 98.967 267.502 114.744 269.797 134.228C272.091 153.718 273.811 169.525 273.634 169.54C273.456 169.555 271.457 153.777 269.162 134.287C266.867 114.804 265.148 98.9966 265.325 98.9744V98.9818Z" fill="#263238"/>
<path d="M173.848 85.0906L145.609 97.6503L155.829 126.306L183.042 130.625L173.848 85.0906Z" fill="#455A64"/>
<path d="M177.734 104.086C177.918 104.063 179.269 115.24 180.744 129.05C182.22 142.86 183.26 154.066 183.069 154.088C182.884 154.11 181.534 142.934 180.058 129.124C178.582 115.321 177.542 104.108 177.734 104.086Z" fill="#263238"/>
<g opacity="0.3">
<path d="M227.817 87.8644C227.441 90.9859 229.175 93.989 231.307 96.2968C233.44 98.5972 236.022 100.476 237.963 102.946C240.184 105.757 241.453 109.189 242.685 112.555C245.268 119.582 247.843 126.616 250.426 133.643C252.647 139.694 254.897 145.811 258.424 151.211C261.944 156.61 266.91 161.307 273.034 163.282L268.386 123.68L243.851 84.1216L227.825 87.8718L227.817 87.8644Z" fill="black"/>
</g>
<path d="M253.236 88.2121C253.236 87.7165 253.627 69.3724 252.403 67.3753C251.178 65.3856 250.196 63.5142 249.945 61.6502C249.945 61.6502 250.617 60.5628 249.392 59.8749C248.174 59.1944 246.241 60.8587 246.197 63.8026C246.153 66.7466 246.492 71.7838 246.492 71.7838C246.492 71.7838 232.989 64.1059 229.292 63.8914C225.588 63.6769 220.039 62.9964 219.744 64.7864C219.449 66.5764 219.7 67.0054 221.633 67.686C223.566 68.3665 226.636 68.8399 229.668 69.8606C232.694 70.8814 234.081 71.5841 234.081 71.5841C234.081 71.5841 227.182 69.5499 225.669 71.5841C224.157 73.6182 224.363 75.4526 225.33 76.4364C225.33 76.4364 223.271 77.287 223.478 79.5504C223.684 81.8138 224.695 82.3686 224.695 82.3686C224.695 82.3686 222.673 83.9071 223.647 85.8673C224.614 87.8274 226.887 86.5922 229.034 88.8112C231.181 91.0303 236.516 96.2376 238.582 97.3915C240.641 98.5454 245.356 99.0114 245.356 99.0114L253.229 88.2121H253.236Z" fill="#FFBF9D"/>
<path d="M253.24 88.2121C253.24 88.2121 253.203 88.2786 253.122 88.397C253.026 88.5301 252.901 88.7076 252.738 88.9443C252.384 89.4325 251.882 90.1426 251.226 91.0598C249.883 92.9238 247.927 95.6311 245.448 99.0632L245.411 99.1075H245.352C244.422 99.004 243.448 98.8634 242.438 98.6785C241.427 98.4862 240.379 98.2495 239.331 97.8575C238.8 97.6652 238.291 97.3767 237.826 97.0364C237.346 96.7036 236.896 96.3338 236.431 95.9565C235.516 95.1946 234.594 94.3736 233.664 93.5082C232.734 92.6501 231.79 91.7477 230.831 90.8083C230.358 90.3349 229.871 89.8541 229.384 89.3734C228.905 88.8704 228.433 88.3896 227.828 88.0567C227.237 87.7091 226.558 87.5464 225.857 87.391C225.179 87.2357 224.352 87.073 223.843 86.4294C223.341 85.8303 223.127 84.9797 223.319 84.1956C223.518 83.4115 224.005 82.7606 224.618 82.2428L224.64 82.5091C224.109 82.1393 223.843 81.5993 223.636 81.0446C223.445 80.4824 223.341 79.8981 223.319 79.2841C223.297 78.6628 223.481 78.0341 223.836 77.5015C224.197 76.9763 224.684 76.5621 225.274 76.281L225.223 76.5547C224.36 75.6893 224.227 74.3061 224.625 73.204C224.81 72.6418 225.097 72.1092 225.444 71.6284C225.599 71.3843 225.85 71.1255 226.123 70.9849C226.396 70.8296 226.691 70.7334 226.986 70.6595C228.182 70.408 229.384 70.5115 230.58 70.6595C231.775 70.8296 232.956 71.0811 234.136 71.4139L234.011 71.7394C232.24 70.9257 230.322 70.2304 228.366 69.6387C226.403 69.0544 224.352 68.6697 222.308 68.0854C221.578 67.8561 220.847 67.6416 220.168 67.2052C219.829 66.9833 219.549 66.5912 219.497 66.1696C219.438 65.7554 219.482 65.3708 219.534 64.9935C219.563 64.8234 219.578 64.5867 219.704 64.387C219.822 64.1947 219.991 64.0541 220.168 63.9432C220.523 63.7361 220.899 63.6399 221.275 63.5659C222.028 63.4254 222.773 63.4032 223.511 63.3958C224.994 63.3958 226.448 63.5142 227.887 63.6103C228.61 63.6695 229.311 63.6769 230.049 63.8174C230.403 63.8988 230.75 64.0023 231.096 64.0985L232.107 64.4536C234.764 65.4669 237.25 66.6948 239.648 67.9079C242.046 69.1357 244.349 70.3784 246.562 71.6284L246.326 71.7764C246.164 68.8694 245.987 66.0882 246.061 63.3958C246.164 62.057 246.673 60.6738 247.787 59.8971C248.068 59.7122 248.392 59.5865 248.739 59.5717C249.086 59.5495 249.433 59.6974 249.691 59.8971C249.957 60.0968 250.178 60.3927 250.23 60.733C250.289 61.0732 250.207 61.4061 250.045 61.7019L250.067 61.6132C250.355 63.6621 251.381 65.4299 252.333 67.035C252.451 67.2274 252.591 67.4493 252.657 67.686C252.738 67.9153 252.775 68.1446 252.827 68.3739C252.908 68.8325 252.967 69.2837 253.011 69.7275C253.107 70.6151 253.159 71.4805 253.203 72.3089C253.366 75.6449 253.358 78.5223 253.358 80.8744C253.351 83.2266 253.321 85.061 253.292 86.3037C253.277 86.9176 253.262 87.3836 253.255 87.7165C253.24 88.0345 253.225 88.1973 253.225 88.1973C253.225 88.1973 253.211 88.0345 253.211 87.7165C253.211 87.3836 253.211 86.9102 253.211 86.3037C253.211 85.0462 253.211 83.2192 253.211 80.8818C253.188 78.5297 253.166 75.6523 252.989 72.3311C252.938 71.5027 252.879 70.6447 252.783 69.7645C252.738 69.3206 252.672 68.8768 252.591 68.433C252.495 67.9744 252.406 67.5676 252.126 67.1756C251.159 65.5631 250.119 63.7878 249.802 61.665V61.6206L249.824 61.5762C249.949 61.3469 250.016 61.0584 249.971 60.7921C249.927 60.5259 249.757 60.2965 249.529 60.1264C249.078 59.7492 248.444 59.8084 247.95 60.1412C246.946 60.8365 246.452 62.1458 246.363 63.4254C246.297 66.0661 246.474 68.8694 246.651 71.7616L246.666 72.0501L246.415 71.9095C244.208 70.6669 241.906 69.4316 239.508 68.2111C237.11 66.998 234.623 65.7776 231.997 64.779L231 64.4314C230.661 64.3426 230.322 64.239 229.982 64.1577C229.318 64.0245 228.58 64.0097 227.864 63.958C226.426 63.8618 224.972 63.7509 223.511 63.7509C222.78 63.7509 222.05 63.7804 221.342 63.9136C220.663 64.0541 219.866 64.2982 219.888 65.0453C219.836 65.4077 219.799 65.7776 219.851 66.1104C219.903 66.4507 220.087 66.717 220.375 66.9093C220.965 67.2939 221.711 67.5158 222.419 67.7377C224.433 68.3073 226.492 68.6993 228.477 69.2911C230.454 69.8976 232.358 70.5781 234.173 71.4213L234.048 71.7468C232.889 71.4213 231.716 71.1698 230.543 70.9997C229.377 70.8444 228.182 70.7482 227.075 70.9849C226.529 71.1181 226.012 71.34 225.732 71.8134C225.407 72.272 225.134 72.7749 224.957 73.3001C224.588 74.3357 224.714 75.5561 225.466 76.3106L225.636 76.4807L225.415 76.5843C224.906 76.821 224.433 77.213 224.116 77.679C223.799 78.1524 223.636 78.7072 223.651 79.2693C223.666 79.8315 223.769 80.4084 223.946 80.9262C224.123 81.4366 224.411 81.9544 224.795 82.2207L224.979 82.3464L224.81 82.4869C224.256 82.9455 223.791 83.5743 223.622 84.2548C223.452 84.9353 223.644 85.6897 224.079 86.2149C224.507 86.7623 225.238 86.925 225.924 87.0804C226.625 87.2357 227.348 87.4132 227.975 87.7831C228.61 88.1307 229.126 88.6633 229.591 89.1515C230.078 89.6396 230.558 90.1204 231.03 90.5938C231.982 91.5332 232.919 92.4356 233.849 93.3011C234.778 94.1665 235.686 94.9875 236.594 95.7494C237.516 96.4891 238.394 97.2583 239.42 97.6282C240.445 98.0202 241.486 98.2643 242.482 98.4566C243.485 98.6489 244.452 98.7969 245.374 98.9004L245.286 98.9374C247.795 95.5349 249.772 92.8573 251.13 91.0081C251.809 90.0982 252.325 89.4029 252.687 88.9148C252.864 88.6855 252.997 88.5079 253.093 88.3822C253.188 88.2638 253.24 88.2047 253.24 88.2047V88.2121Z" fill="#FF9A6C"/>
<path d="M296.993 131.04C295.643 128.458 292.596 123.073 291.127 119.782L281.476 123.295C281.476 123.295 254.137 86.2815 253.267 86.2815C252.396 86.2815 240.523 97.3175 240.523 97.3175C241.047 97.8427 265.663 154.391 275.086 160.516C284.508 166.64 291.54 170.531 296.602 161.781C301.664 153.03 302.926 142.416 296.993 131.04Z" fill="#FFBF9D"/>
<path d="M293.836 139.908C293.836 139.908 293.651 139.664 293.385 139.191C293.12 138.717 292.721 138.037 292.22 137.208C291.216 135.544 289.726 133.303 287.925 130.951C286.117 128.599 284.369 126.557 283.092 125.085C282.494 124.39 281.985 123.805 281.579 123.339C281.225 122.925 281.041 122.689 281.056 122.674C281.07 122.659 281.292 122.859 281.683 123.251C282.066 123.635 282.612 124.205 283.277 124.922C284.597 126.35 286.39 128.369 288.198 130.736C290.013 133.103 291.474 135.374 292.426 137.083C292.906 137.933 293.267 138.636 293.504 139.132C293.74 139.627 293.858 139.901 293.836 139.916V139.908Z" fill="#FF9A6C"/>
<path d="M238.235 57.4784C237.991 57.6633 236.973 56.6055 235.357 56.0434C233.756 55.4369 232.302 55.5848 232.228 55.2889C232.199 55.1558 232.546 54.9191 233.188 54.8007C233.829 54.675 234.767 54.7046 235.711 55.0522C236.656 55.3999 237.393 55.9842 237.807 56.4872C238.22 56.9976 238.338 57.4044 238.227 57.4858L238.235 57.4784Z" fill="#263238"/>
<path d="M196.143 134.997C183.821 126.675 169.166 123.702 159.559 123.694C150.564 123.694 137.319 125.1 125.329 131.868C117.884 136.069 111.944 141.817 107.664 148.947C102.602 157.394 99.8574 167.839 99.5106 180.006C99.4589 181.833 100.13 183.557 101.4 184.873C102.676 186.19 104.388 186.922 106.225 186.922L129.815 186.937C133.143 186.937 136.006 184.452 136.478 181.153C137.526 173.734 141.931 161.255 159.581 160.96C173.04 160.745 178.574 170.501 180.33 174.71C183.193 181.56 182.463 189.681 178.368 196.427C172.081 206.797 160.533 208.38 154.21 208.395C146.934 208.417 141.016 214.335 141.009 221.584L140.994 247.029C140.994 250.742 144.005 253.767 147.716 253.775L170.701 253.789C174.405 253.789 177.423 250.771 177.431 247.051V241.703C177.431 241.577 177.512 241.466 177.637 241.422C182.847 239.595 192.941 235.179 202.039 226.118C213.653 214.557 219.549 199.637 219.556 181.759C219.571 156.174 206.835 142.201 196.143 134.982V134.997Z" fill="#14B8AD"/>
<g opacity="0.3">
<path d="M218.67 165.427C218.36 162.824 217.681 160.331 216.729 157.934C212.125 146.425 201.33 138.577 189.037 137.179L129.719 130.418C136.168 137.023 144.587 138.34 153.515 140.663C162.444 142.985 172.051 146.462 181.075 148.385C183.968 148.999 186.963 149.776 189.214 151.699C191.413 153.578 192.638 156.322 193.796 158.977C195.508 162.905 197.227 166.84 198.939 170.768C200.895 175.258 203.499 180.324 208.775 180.613C210.9 180.731 212.988 179.932 214.604 178.542C218.419 175.258 219.231 170.146 218.67 165.442V165.427Z" fill="black"/>
</g>
<path d="M217.822 149.502C217.365 148.696 208.348 137.645 203.869 133.362C200.976 130.596 196.615 128.687 193.878 127.681C193.878 127.681 148.742 111.342 145.613 109.751L125.344 130.544C132.398 132.511 180.316 144.073 192.136 146.676C194.203 149.095 196.283 151.077 196.283 151.077L199.722 159.169C199.722 159.169 200.12 162.113 199.869 165.272C199.619 168.43 202.179 167.202 202.179 167.202C202.179 167.202 202.061 169.163 202.223 171.996C202.223 172.025 202.223 172.055 202.223 172.077C202.393 174.192 205.426 174.451 206.068 172.432L208.399 165.139C208.399 165.139 208.097 171.781 207.971 175.472C207.949 176.145 208.067 176.692 208.274 177.144C209.167 179.104 212.074 178.734 212.568 176.641L215.299 165.102L214.413 158.03L216.7 164.488C216.7 164.488 217.335 167.942 217.202 172.787C217.151 174.725 217.807 175.553 218.604 175.842C219.947 176.33 221.364 175.257 221.482 173.83L222.353 163.134C222.353 163.134 218.28 150.308 217.822 149.502Z" fill="#FFBF9D"/>
<path d="M142.695 108.938C142.717 108.856 143.994 109.056 146.016 109.618C148.038 110.173 150.775 111.12 153.734 112.296C156.693 113.479 159.342 114.611 161.26 115.432C163.179 116.253 164.359 116.764 164.323 116.86C164.293 116.949 163.046 116.594 161.083 115.883C159.113 115.181 156.435 114.116 153.483 112.932C150.532 111.756 147.846 110.75 145.876 110.077C143.913 109.404 142.673 109.034 142.703 108.93L142.695 108.938Z" fill="#FF9A6C"/>
</g>
<defs>
<clipPath id="clip0_4457_50148">
<rect width="338" height="315" fill="white" transform="translate(0 -17)"/>
</clipPath>
</defs>
</svg>
