<svg fill="#009db2" width="18" height="18" xmlns="http://www.w3.org/2000/svg" viewBox="0 0 19.5 19.5" xml:space="preserve"><path d="M578.1 252.7h4.3c1.3 0 2.2 1.4 1.6 2.6l-3.2 6.2c-.3.6-.9 1-1.6 1h-3.6c-.1 0-.3 0-.4-.1l-3.4-.8m6.3-8.9v-4.4c0-1-.8-1.8-1.8-1.8h-.1c-.4 0-.8.4-.8.8 0 .6-.2 1.3-.5 1.8l-3.1 4.5v8m6.3-8.9h-1.8m-4.5 8.9H570c-1 0-1.8-.8-1.8-1.8v-5.3c0-1 .8-1.8 1.8-1.8h2.3M9.8 0C4.4 0 0 4.4 0 9.7c0 5.4 4.4 9.8 9.8 9.8s9.8-4.4 9.8-9.8C19.5 4.4 15.1 0 9.8 0zm0 18c-4.6 0-8.2-3.7-8.2-8.2 0-4.6 3.7-8.2 8.2-8.2S18 5.2 18 9.7c0 4.6-3.7 8.3-8.2 8.3z"></path><path d="M13.5 9.7c0 .4-.3.8-.8.8h-2.2v2.2c0 .4-.3.8-.8.8s-.7-.3-.7-.8v-2.2H6.8c-.5 0-.8-.3-.8-.8 0-.4.3-.7.8-.7H9V6.7c0-.4.3-.7.8-.7s.8.3.8.8V9h2.2c.4 0 .7.3.7.7z"></path></svg>